# xmcd
#
# Track frame offsets:
#	150
#	18705
#	46524
#	70276
#	104091
#	120787
#	134006
#	149834
#	164955
#	192496
#	211221
#	241995
#	255401
#
# Disc length: 3728 seconds
#
# Revision: 0
# Processed by: cddbd v1.5.2PL0 Copyright (c) Steve Scherf et al.
# Submitted via: EZCDAudioConverter 1.3.4.1
#
DISCID=c90e8e0d
DTITLE=Various Artist - Nigeria Special 1/2
DYEAR=1900
DGENRE=
TTITLE0=Anambra Beats - Ayamma
TTITLE1=Celestine Ukwu and His Philosophers National - Okwukwe Na Nchekwube
TTITLE2=Don Issac Ezekiel Combination - Amalinja
TTITLE3=The Funkees - Akula Owu Onyeara
TTITLE4=Dele Ojo and His Star Brothers Band - Oja Omoba
TTITLE5=Harbours Band - Koma Mosi
TTITLE6=The Semi-Colon - Nekwaha Semi Colon
TTITLE7=Sir Victor Uwaifo and His Melody Maestros - Osalobua Rekpama
TTITLE8=St. Augustine and His Rovers Dance Band - Onwu Ama Dike
TTITLE9=Sahara All Stars Of Jos - Feso Jaiye
TTITLE10=Mono Mono - Ema Kowa Iasa Ile Wa
TTITLE11=Tunji Oyelana and The Benders - To Whom It May Concern
TTITLE12=Tony Benson Sextet - Ugali
EXTD=
EXTT0=
EXTT1=
EXTT2=
EXTT3=
EXTT4=
EXTT5=
EXTT6=
EXTT7=
EXTT8=
EXTT9=
EXTT10=
EXTT11=
EXTT12=
PLAYORDER=
